# xmcd
# 
# Track frame offsets:
#     150
#     32398
#     45661
#     88615
#     98771
#     122629
#     135098
#     149676
#     163827
#     190171
#     204386
#     215331
#     237218
#     255825
#     274988
# 
# Disc length: 3788
# 
# Revision: 2
# Processed by: cddbd v1.5.2PL0 Copyright (c) Steve Scherf et al.
# Submitted via: fre:ac v1.0.31
# 
DISCID=c90eca0f
DTITLE=Various Artist - The Very Best Jazz Instrumentals - Disc 2
DYEAR=2015
DGENRE=Jazz
TTITLE0=Herbie Hancock - Watermelon Man
TTITLE1=Acker Bilk - Stranger On The Shore
TTITLE2=Art Blakey and The Jazz Messengers - Moanin'
TTITLE3=Billy Vaughn - A Swingin' Safari
TTITLE4=Cnnonball Adderley and Ray Brown - Work Song
TTITLE5=Cris Barber's Jazz Band - Petite Fleur
TTITLE6=Dizzy Gillespie - Salt Peanuts
TTITLE7=Django Reinhardt and Stéphane Grappelli - Sweet Georgia Brown
TTITLE8=Stan Getz and Charlie Byrd - Desafinado
TTITLE9=Ray Charles - One Mint Julep
TTITLE10=Bert Kaempfert And His Orchestra - Afrikaan Beat
TTITLE11=Oscar Peterson Trio - Night Train
TTITLE12=Herbie Mann - Blues Walk
TTITLE13=Philip Upchurch Combo - You Can't Sit Down (Part 1 and 2)
TTITLE14=The Dave Brubeck Quartet - Unsquare Dance
EXTD=
EXTT0=
EXTT1=
EXTT2=
EXTT3=
EXTT4=
EXTT5=
EXTT6=
EXTT7=
EXTT8=
EXTT9=
EXTT10=
EXTT11=
EXTT12=
EXTT13=
EXTT14=
PLAYORDER=
